<svg xmlns="http://www.w3.org/2000/svg" version="1.1" xmlns:xlink="http://www.w3.org/1999/xlink" xmlns:svgjs="http://svgjs.dev/svgjs" width="1000" height="1000" viewBox="0 0 1000 1000"><rect width="1000" height="1000" fill="#000000"></rect><g transform="matrix(0.7,0,0,0.7,150,150)"><svg viewBox="0 0 280 280" data-background-color="#ffffff" preserveAspectRatio="xMidYMid meet" height="1000" width="1000" xmlns="http://www.w3.org/2000/svg" xmlns:xlink="http://www.w3.org/1999/xlink"><defs></defs><g id="tight-bounds" transform="matrix(1,0,0,1,0,0)"><svg viewBox="0 0 280 280" height="280" width="280"><g><svg viewBox="0 0 280 280" height="280" width="280"><g><svg viewBox="0 0 280 280" height="280" width="280"><g><svg viewBox="0 0 280 280" height="280" width="280"><g><svg viewBox="0 0 280 280" height="280" width="280"><g transform="matrix(1,0,0,1,57.44476016331649,57.50420886156945)"><svg viewBox="0 0 165.11047967336702 164.9915822768611" height="164.9915822768611" width="165.11047967336702"><g><circle r="82" cx="82.49579113843055" cy="82.49579113843055" fill="#ffffff" data-fill-palette-color="accent"></circle><svg xmlns="http://www.w3.org/2000/svg" xmlns:xlink="http://www.w3.org/1999/xlink" xml:space="preserve" style="shape-rendering:geometricPrecision;text-rendering:geometricPrecision;image-rendering:optimizeQuality;" viewBox="0 0 6827 6827" x="24.774226605901568" y="24.774226605901568" fill-rule="evenodd" clip-rule="evenodd" height="115.44312906505796" width="115.56202646156389" class="icon-o-0" data-fill-palette-color="quaternary" id="o-0"><g fill="#ffffff" data-fill-palette-color="quaternary"><g fill="#ffffff" data-fill-palette-color="quaternary"><path class="" d="M3583 3439c12 30 25 59 38 89 26 64 50 129 71 195 65 199 109 407 126 615 22 267-1 536-83 791-101 312-281 577-524 796-76 69-194 63-263-13-69-76-63-194 13-263 196-176 340-389 421-640 68-209 86-430 68-649-14-177-52-354-107-523-24-73-58-169-95-237-3-6-7-13-9-19l-48-115 2-1c-239-619-339-1315-54-1936 82-178 194-344 331-484 55-56 123-118 189-161 86-56 201-33 258 53 57 86 33 202-53 258-177 117-336 329-425 517-292 620-85 1160 145 1727z" fill="#ffffff" data-fill-palette-color="quaternary"></path><path class="" d="M5943 3169c-43 67-107 136-163 191-141 137-307 249-485 330-470 215-984 210-1473 91-9-31-18-61-28-92-22-68-47-136-74-202-12-30-25-59-38-89l-18-44c472 167 995 230 1461 16 181-83 395-237 507-407 57-86 173-109 258-53 86 57 109 172 53 258z m-2845 353c-38-14-75-27-108-38-169-55-346-93-523-107-219-18-439 0-649 68-251 81-463 226-640 421-69 76-187 82-263 13-76-69-82-187-13-263 219-243 485-423 796-524 256-82 524-105 791-83 158 13 315 41 469 83 39 150 81 292 140 430z" fill="#ffffff" data-fill-palette-color="quaternary"></path><path class="" d="M3904 1296l1627 1627c4-6 8-12 12-18 51-77 131-122 217-130l-1708-1708c-8 85-53 166-130 217-6 4-12 8-18 12z" fill="#ffffff" data-fill-palette-color="quaternary"></path><path class="" d="M3517 1797l1503 1503c21-8 41-17 61-26 59-27 123-63 185-105l-1612-1612c-47 66-87 135-118 201-6 13-12 27-18 40z" fill="#ffffff" data-fill-palette-color="quaternary"></path><path class="" d="M3422 2590l791 791c130 17 260 23 390 13l-1194-1194c-10 99-10 200 2 305 3 28 7 57 12 85z" fill="#ffffff" data-fill-palette-color="quaternary"></path><path class="" d="M1302 3890l1635 1635c-15 15-31 30-47 45-57 51-89 119-95 190l-1727-1727c70-7 139-39 190-95 15-16 29-32 44-47z" fill="#ffffff" data-fill-palette-color="quaternary"></path><path class="" d="M1847 3548l1432 1432c-30 92-69 179-117 260l-1575-1575c81-48 167-87 260-117z" fill="#ffffff" data-fill-palette-color="quaternary"></path><path class="" d="M2706 3519l601 601c17 82 29 165 36 248 5 56 7 113 6 170l-1061-1061c57-1 113 1 170 6 83 7 166 19 248 36z" fill="#ffffff" data-fill-palette-color="quaternary"></path></g></g></svg></g></svg></g><path d="M32.662 102.297c-0.782 2.205-2.003 3.916-3.665 5.133-1.653 1.214-3.654 1.889-6.002 2.027-2.339 0.134-4.933-0.304-7.78-1.313v0c-2.873-1.018-5.193-2.308-6.96-3.869-1.771-1.57-2.925-3.322-3.462-5.256-0.544-1.936-0.438-3.969 0.317-6.099v0c0.773-2.18 1.915-3.877 3.428-5.091 1.511-1.208 3.296-1.939 5.354-2.193v0l0.52 2.788c-1.801 0.282-3.226 0.86-4.274 1.733-1.039 0.869-1.841 2.1-2.405 3.693v0c-0.808 2.28-0.462 4.416 1.038 6.41 1.503 1.988 3.997 3.6 7.482 4.835v0c2.286 0.81 4.365 1.213 6.236 1.209 1.876 0.004 3.453-0.389 4.732-1.18 1.276-0.785 2.174-1.908 2.691-3.37v0c0.646-1.824 0.743-3.385 0.29-4.684-0.447-1.297-1.374-2.688-2.782-4.171v0l2.319-1.899c1.671 1.633 2.761 3.397 3.27 5.293 0.515 1.898 0.4 3.899-0.347 6.004zM49.648 70.633l-1.556 2.391-8.087-1.861-6.301 9.679 5.126 6.409-1.67 2.565-17.933-23.463 1.556-2.39zM23.329 67.375l8.761 11.301 5.276-8.104zM66.875 53.109l-2.273 2.282-13.684-3.672-3.893 3.908 8.703 8.671-2.161 2.168-19.715-19.642 6.566-6.591c1.193-1.197 2.473-2.017 3.84-2.46 1.363-0.448 2.705-0.495 4.027-0.14 1.313 0.354 2.509 1.068 3.588 2.144v0c1.31 1.305 2.039 2.817 2.187 4.536 0.153 1.724-0.263 3.404-1.248 5.041v0zM37.808 46.444l7.429 7.401 4.118-4.133c1.267-1.272 1.905-2.588 1.911-3.946 0.007-1.359-0.548-2.595-1.666-3.708v0c-1.117-1.113-2.36-1.668-3.728-1.666-1.363 0.007-2.679 0.647-3.946 1.919v0zM80.73 45.134c-1.729 1.085-3.681 1.707-5.857 1.867-2.176 0.16-4.268-0.158-6.277-0.955v0l0.932-3.189c1.655 0.792 3.371 1.171 5.147 1.135 1.773-0.041 3.407-0.53 4.9-1.466v0c1.639-1.028 2.658-2.172 3.057-3.432 0.399-1.259 0.208-2.512-0.574-3.758v0c-0.852-1.358-1.962-2.117-3.329-2.276-1.369-0.15-3.217 0.121-5.543 0.814v0c-5.741 1.896-9.645 1.197-11.712-2.098v0c-1.285-2.049-1.609-4.048-0.97-5.997 0.642-1.944 2.15-3.661 4.525-5.15v0c1.729-1.085 3.481-1.734 5.255-1.948 1.775-0.214 3.623 0.008 5.544 0.664v0l-0.95 3.013c-1.539-0.607-2.973-0.873-4.302-0.798-1.332 0.084-2.688 0.56-4.068 1.426v0c-1.454 0.912-2.428 1.996-2.923 3.253-0.494 1.257-0.374 2.472 0.362 3.645v0c0.754 1.201 1.774 1.887 3.062 2.057 1.293 0.166 3.107-0.146 5.443-0.939v0c2.802-0.858 5.219-1.139 7.251-0.841 2.036 0.303 3.697 1.479 4.982 3.527v0c0.796 1.269 1.174 2.588 1.134 3.959-0.036 1.376-0.492 2.714-1.366 4.013-0.865 1.302-2.106 2.459-3.723 3.474zM115.35 31.52c-2.279 0.528-4.375 0.419-6.289-0.329-1.919-0.739-3.566-2.061-4.939-3.967-1.378-1.898-2.409-4.319-3.091-7.262v0c-0.688-2.969-0.833-5.622-0.436-7.959 0.389-2.342 1.283-4.266 2.682-5.774 1.391-1.513 3.226-2.533 5.505-3.061v0c2.098-0.486 4.018-0.434 5.759 0.155 1.742 0.589 3.367 1.672 4.874 3.248v0l-1.955 2.218c-2.372-2.634-5.055-3.604-8.05-2.909v0c-2.492 0.577-4.197 2.04-5.115 4.388-0.925 2.35-0.97 5.326-0.135 8.928v0c0.829 3.576 2.181 6.215 4.058 7.916 1.878 1.707 4.047 2.276 6.507 1.706v0c1.381-0.32 2.544-0.94 3.487-1.859 0.95-0.921 1.591-2.103 1.922-3.547 0.338-1.446 0.289-3.111-0.147-4.995v0l-6.4 1.482-0.57-2.459 9.344-2.165 0.569 2.46c0.571 2.466 0.616 4.656 0.135 6.569-0.475 1.913-1.391 3.478-2.748 4.698-1.349 1.224-3.004 2.063-4.967 2.518zM148.091 27.82l-15.71 0.358-0.634-27.823 15.591-0.355 0.059 2.574-12.53 0.285 0.221 9.708 9.797-0.223 0.057 2.484-9.798 0.223 0.24 10.523 12.649-0.288zM157.816 29.588l-3.005-0.584 5.31-27.319 3.21 0.624 9.473 25.494 4.431-22.791 2.995 0.582-5.311 27.319-3.2-0.622-9.488-25.417zM196.908 42.637l-14.343-6.421 11.371-25.401 14.234 6.372-1.052 2.35-11.44-5.121-3.967 8.863 8.945 4.004-1.016 2.268-8.944-4.004-4.301 9.607 11.548 5.17zM209.825 52.02l-2.431-1.795 15.021-20.352-7.053-5.206 1.505-2.039 16.546 12.211-1.505 2.04-7.062-5.212zM226.601 67.012l-5.925-6.023 1.92-1.889 1.889 1.92 16-15.738-1.889-1.92 1.92-1.889 5.925 6.022-1.921 1.889-1.888-1.92-16 15.739 1.889 1.92zM236.472 82.123c-1.305-1.941-1.951-3.942-1.939-6.002 0.011-2.051 0.66-4.06 1.949-6.028 1.286-1.958 3.184-3.78 5.691-5.466v0c2.53-1.7 4.948-2.795 7.254-3.283 2.316-0.486 4.41-0.369 6.284 0.352 1.879 0.717 3.449 2.013 4.709 3.888v0c1.29 1.919 1.972 3.848 2.045 5.787 0.07 1.933-0.407 3.802-1.429 5.607v0l-2.549-1.244c0.847-1.615 1.232-3.103 1.155-4.465-0.079-1.352-0.589-2.73-1.531-4.132v0c-1.349-2.007-3.271-3.003-5.768-2.986-2.492 0.022-5.272 1.065-8.341 3.127v0c-2.013 1.353-3.575 2.782-4.686 4.287-1.121 1.504-1.745 3.005-1.872 4.504-0.13 1.493 0.237 2.883 1.102 4.169v0c1.079 1.606 2.276 2.614 3.589 3.025 1.308 0.414 2.977 0.498 5.007 0.251v0l0.144 2.993c-2.307 0.369-4.373 0.193-6.199-0.528-1.831-0.717-3.37-2.003-4.615-3.856zM247.544 104.738c-0.73-1.906-0.963-3.942-0.699-6.108 0.264-2.166 0.98-4.157 2.151-5.974v0l2.949 1.531c-1.097 1.47-1.801 3.08-2.11 4.831-0.303 1.748-0.139 3.445 0.491 5.091v0c0.692 1.807 1.617 3.028 2.775 3.663 1.158 0.635 2.424 0.69 3.799 0.163v0c1.498-0.573 2.457-1.515 2.877-2.825 0.412-1.314 0.503-3.18 0.273-5.597v0c-0.75-5.999 0.691-9.694 4.324-11.084v0c2.259-0.865 4.283-0.795 6.072 0.208 1.783 1.006 3.175 2.818 4.177 5.436v0c0.73 1.906 1.028 3.75 0.895 5.532-0.134 1.782-0.708 3.553-1.724 5.311v0l-2.772-1.514c0.893-1.392 1.431-2.748 1.614-4.067 0.175-1.323-0.029-2.745-0.612-4.267v0c-0.614-1.603-1.489-2.768-2.626-3.497-1.137-0.728-2.353-0.845-3.646-0.349v0c-1.324 0.507-2.194 1.376-2.61 2.606-0.413 1.237-0.457 3.077-0.132 5.521v0c0.3 2.915 0.108 5.341-0.577 7.277-0.691 1.939-2.166 3.341-4.425 4.206v0c-1.399 0.535-2.766 0.651-4.103 0.346-1.343-0.302-2.567-1.007-3.673-2.116-1.11-1.101-2.006-2.542-2.688-4.324zM13.348 193.404c-0.801-2.247-0.939-4.389-0.414-6.427 0.534-2.034 1.683-3.861 3.448-5.482 1.773-1.617 4.114-2.944 7.022-3.981v0c2.933-1.046 5.603-1.52 8.009-1.421 2.414 0.103 4.462 0.745 6.143 1.925 1.676 1.189 2.903 2.873 3.679 5.051v0c0.792 2.222 0.981 4.3 0.567 6.235-0.421 1.937-1.362 3.669-2.822 5.196v0l-2.218-1.869c1.25-1.388 2.007-2.766 2.272-4.134 0.267-1.362 0.112-2.854-0.467-4.476v0c-0.832-2.334-2.486-3.806-4.962-4.415-2.475-0.609-5.495-0.278-9.058 0.993v0c-2.334 0.832-4.242 1.854-5.724 3.065-1.49 1.207-2.486 2.536-2.989 3.988-0.504 1.446-0.491 2.915 0.042 4.407v0c0.663 1.86 1.591 3.161 2.784 3.903 1.2 0.74 2.835 1.244 4.908 1.511v0l-0.617 3.006c-2.377-0.215-4.38-0.911-6.01-2.088-1.628-1.171-2.825-2.834-3.593-4.987zM33.825 228.873l-1.6-2.445 5.071-6.81-6.465-9.881-8.107 2.169-1.714-2.62 29.333-7.124 1.599 2.446zM47.702 205.588l-14.181 3.541 5.415 8.276zM53.609 249.392l-2.327-2.326 3.773-13.98-3.985-3.984-8.876 8.877-2.207-2.206 20.113-20.117 6.719 6.719c1.223 1.223 2.059 2.532 2.51 3.928 0.455 1.392 0.499 2.762 0.134 4.112-0.365 1.349-1.099 2.575-2.2 3.675v0c-1.335 1.335-2.881 2.076-4.638 2.222-1.762 0.15-3.479-0.278-5.152-1.286v0zM60.48 219.69l-7.583 7.584 4.217 4.217c1.298 1.298 2.64 1.951 4.028 1.96 1.387 0.009 2.65-0.555 3.788-1.694v0c1.143-1.143 1.715-2.413 1.714-3.809 0-1.396-0.649-2.743-1.947-4.041v0zM70.07 261.022c-1.765-1.102-3.209-2.617-4.333-4.545-1.121-1.934-1.767-4.001-1.939-6.203v0l3.353-0.566c0.016 1.877 0.436 3.624 1.263 5.241 0.826 1.617 2.004 2.903 3.532 3.857v0c1.675 1.046 3.184 1.469 4.528 1.269 1.334-0.198 2.398-0.932 3.191-2.203v0c0.87-1.394 1.071-2.753 0.601-4.077-0.47-1.324-1.542-2.904-3.217-4.739v0c-4.31-4.433-5.412-8.335-3.307-11.707v0c1.309-2.097 3.001-3.286 5.076-3.569 2.077-0.274 4.329 0.348 6.757 1.864v0c1.771 1.105 3.149 2.427 4.134 3.963 0.995 1.535 1.619 3.331 1.874 5.388v0l-3.188 0.471c-0.129-1.682-0.529-3.119-1.199-4.311-0.664-1.188-1.705-2.224-3.121-3.109v0c-1.484-0.926-2.916-1.336-4.295-1.228-1.379 0.107-2.445 0.763-3.195 1.965v0c-0.765 1.225-0.936 2.47-0.515 3.733 0.422 1.263 1.518 2.792 3.289 4.585v0c2.037 2.193 3.372 4.289 4.008 6.287 0.637 2.007 0.3 4.062-1.013 6.164v0c-0.807 1.293-1.853 2.23-3.137 2.81-1.275 0.579-2.708 0.758-4.297 0.539-1.58-0.221-3.197-0.848-4.85-1.879zM110.709 277.078c-2.33-0.54-4.208-1.581-5.632-3.123-1.423-1.548-2.341-3.502-2.752-5.862-0.404-2.366-0.257-5.052 0.44-8.06v0c0.704-3.034 1.76-5.534 3.168-7.499 1.416-1.971 3.104-3.338 5.063-4.101 1.958-0.757 4.102-0.865 6.432-0.325v0c2.143 0.497 3.881 1.407 5.213 2.73 1.333 1.323 2.337 3.049 3.013 5.178v0l-2.786 1.149c-0.987-3.487-3.014-5.586-6.08-6.297v0c-2.543-0.59-4.765-0.013-6.666 1.729-1.907 1.741-3.288 4.455-4.143 8.14v0c-0.849 3.66-0.794 6.693 0.165 9.099 0.952 2.404 2.687 3.898 5.205 4.482v0c1.414 0.328 2.761 0.283 4.041-0.134 1.28-0.417 2.401-1.215 3.361-2.393 0.952-1.174 1.652-2.722 2.098-4.646v0l-6.536-1.516 0.584-2.517 9.547 2.214-0.584 2.517c-0.584 2.517-1.527 4.547-2.83 6.088-1.295 1.536-2.839 2.562-4.632 3.079-1.785 0.511-3.681 0.534-5.689 0.068zM147.827 280l-16.048-0.374 0.663-28.439 15.929 0.372-0.062 2.623-12.808-0.299-0.231 9.927 10.006 0.233-0.059 2.544-10.007-0.233-0.25 10.761 12.927 0.301zM161.332 277.894l-3.064 0.594-5.411-27.927 3.269-0.633 18.732 20.547-4.514-23.302 3.064-0.593 5.41 27.927-3.269 0.633-18.714-20.46zM204.97 263.42l-14.654 6.552-11.612-25.968 14.545-6.504 1.071 2.395-11.696 5.23 4.053 9.065 9.138-4.086 1.038 2.323-9.137 4.085 4.394 9.827 11.805-5.278zM221.272 252.025l-2.488 1.835-15.348-20.816-7.216 5.321-1.534-2.08 16.92-12.476 1.533 2.08-7.215 5.321zM240.294 235.132l-6.062 6.139-1.959-1.935 1.935-1.959-16.324-16.117-1.934 1.959-1.96-1.934 6.062-6.14 1.959 1.935-1.927 1.952 16.323 16.117 1.928-1.952zM253.428 218.128c-1.336 1.976-2.98 3.356-4.934 4.14-1.955 0.774-4.108 0.931-6.459 0.469-2.353-0.471-4.809-1.57-7.367-3.299v0c-2.58-1.744-4.543-3.614-5.889-5.611-1.347-2.006-2.043-4.036-2.087-6.089-0.035-2.055 0.595-4.04 1.89-5.957v0c1.321-1.954 2.883-3.338 4.688-4.149 1.81-0.808 3.762-1.076 5.858-0.804v0l-0.192 2.893c-1.859-0.184-3.418 0.022-4.677 0.619-1.255 0.591-2.365 1.601-3.33 3.028v0c-1.388 2.053-1.594 4.257-0.618 6.612 0.976 2.355 3.031 4.592 6.166 6.71v0c2.053 1.388 4.007 2.32 5.86 2.796 1.855 0.486 3.516 0.501 4.984 0.046 1.464-0.45 2.639-1.331 3.526-2.644v0c1.106-1.636 1.604-3.155 1.495-4.556-0.114-1.405-0.677-3.021-1.69-4.848v0l2.787-1.284c1.235 2.042 1.861 4.069 1.878 6.079 0.02 2.005-0.609 3.955-1.889 5.849zM266.702 191.404c-0.749 1.941-1.963 3.646-3.644 5.114-1.687 1.466-3.595 2.491-5.725 3.077v0l-1.189-3.186c1.84-0.37 3.476-1.113 4.907-2.23 1.432-1.117 2.472-2.516 3.121-4.198v0c0.71-1.842 0.84-3.404 0.39-4.686-0.447-1.273-1.369-2.179-2.766-2.717v0c-1.533-0.591-2.906-0.531-4.117 0.181-1.212 0.712-2.56 2.063-4.046 4.054v0c-3.538 5.07-7.162 6.89-10.872 5.459v0c-2.306-0.889-3.794-2.326-4.463-4.31-0.661-1.988-0.477-4.317 0.553-6.988v0c0.751-1.948 1.788-3.55 3.111-4.808 1.319-1.267 2.965-2.219 4.937-2.858v0l1.064 3.041c-1.627 0.445-2.963 1.109-4.006 1.992-1.041 0.877-1.862 2.094-2.463 3.653v0c-0.629 1.632-0.761 3.115-0.395 4.449 0.366 1.334 1.211 2.256 2.534 2.767v0c1.348 0.52 2.602 0.453 3.763-0.2 1.161-0.653 2.454-2.019 3.88-4.097v0c1.769-2.414 3.574-4.122 5.417-5.123 1.85-1.005 3.932-1.062 6.244-0.17v0c1.422 0.548 2.539 1.398 3.352 2.549 0.809 1.143 1.256 2.516 1.342 4.118 0.081 1.594-0.228 3.3-0.929 5.117zM11.147 144.258c0-1.8 1.46-3.26 3.26-3.26 1.8 0 3.26 1.46 3.26 3.26 0 1.8-1.46 3.26-3.26 3.26-1.8 0-3.26-1.46-3.26-3.26zM261.623 144.258c0-1.8 1.46-3.26 3.26-3.26 1.8 0 3.26 1.46 3.26 3.26 0 1.8-1.46 3.26-3.26 3.26-1.8 0-3.26-1.46-3.26-3.26z" fill="#ffffff" data-fill-palette-color="primary"></path></svg></g></svg></g></svg></g></svg></g></svg><rect width="280" height="280" fill="none" stroke="none" visibility="hidden"></rect></g></svg></g></svg>